<svg width="24" height="24" viewBox="0 0 24 24" fill="none" xmlns="http://www.w3.org/2000/svg">
<g id="clear 1">
<path id="Vector" d="M6.24001 11.52H5.76001V11.04C5.76001 10.4035 6.01286 9.79303 6.46295 9.34294C6.91304 8.89285 7.52349 8.64 8.16001 8.64H10.56V5.28C10.56 4.89808 10.7117 4.53181 10.9818 4.26176C11.2518 3.99171 11.6181 3.84 12 3.84C12.3819 3.84 12.7482 3.99171 13.0182 4.26176C13.2883 4.53181 13.44 4.89808 13.44 5.28V8.64H15.84C16.4765 8.64 17.087 8.89285 17.5371 9.34294C17.9872 9.79303 18.24 10.4035 18.24 11.04V11.52H6.24001ZM18.3072 12.48H5.69281L4.80001 19.6224C4.78908 19.7573 4.83031 19.8913 4.91521 19.9968C4.96138 20.0478 5.01765 20.0886 5.08045 20.1167C5.14325 20.1448 5.21121 20.1596 5.28001 20.16H7.37281L7.45921 19.2L7.68001 16.752C7.68631 16.689 7.70497 16.6278 7.73491 16.572C7.76486 16.5161 7.80551 16.4668 7.85454 16.4266C7.90357 16.3865 7.96002 16.3565 8.02066 16.3382C8.08131 16.3199 8.14497 16.3137 8.20801 16.32C8.27104 16.3263 8.33222 16.345 8.38804 16.3749C8.44386 16.4048 8.49324 16.4455 8.53336 16.4945C8.57347 16.5436 8.60354 16.6 8.62184 16.6607C8.64014 16.7213 8.64631 16.785 8.64001 16.848L8.41921 19.2L8.33281 20.16H14.2272L14.0832 19.2L13.4496 14.9472C13.4401 14.8851 13.443 14.8218 13.4581 14.7608C13.4732 14.6998 13.5003 14.6425 13.5377 14.592C13.5752 14.5416 13.6222 14.4991 13.6762 14.467C13.7301 14.4348 13.7899 14.4137 13.8521 14.4048C13.9143 14.3959 13.9776 14.3995 14.0384 14.4152C14.0992 14.431 14.1563 14.4586 14.2064 14.4965C14.2564 14.5345 14.2985 14.582 14.33 14.6362C14.3616 14.6905 14.3822 14.7505 14.3904 14.8128L15.0528 19.2L15.1968 20.16H16.7328L16.56 19.2L16.3296 17.8464C16.317 17.7845 16.3171 17.7207 16.3297 17.6589C16.3423 17.597 16.3673 17.5383 16.4032 17.4863C16.439 17.4343 16.485 17.3901 16.5383 17.3563C16.5917 17.3225 16.6513 17.2998 16.7136 17.2896C16.7754 17.2777 16.839 17.2782 16.9006 17.2912C16.9622 17.3041 17.0207 17.3291 17.0725 17.3649C17.1243 17.4006 17.1685 17.4463 17.2025 17.4993C17.2365 17.5523 17.2596 17.6116 17.2704 17.6736L17.5392 19.2L17.7024 20.16H18.72C18.7888 20.1596 18.8568 20.1448 18.9196 20.1167C18.9824 20.0886 19.0386 20.0478 19.0848 19.9968C19.1697 19.8913 19.2109 19.7573 19.2 19.6224L18.3072 12.48Z" fill="#010C10"/>
</g>
</svg>
